<svg width="287" height="285" viewBox="0 0 287 285" fill="none" xmlns="http://www.w3.org/2000/svg">
<path d="M205.472 30.4579L199.55 26.2869H206.957L209.662 18.3569L212.419 26.2869H219.802L213.905 30.4579L216.172 37.6149L209.662 33.4889L203.179 37.6149L205.472 30.4579Z" fill="#003CA6"/>
<path d="M72.58 30.4579L66.658 26.2869H74.067L76.771 18.3569L79.529 26.2869H86.912L81.013 30.4579L83.283 37.6149L76.771 33.4889L70.29 37.6149L72.58 30.4579Z" fill="#003CA6"/>
<path d="M205.472 259.323L199.55 255.151H206.957L209.662 247.224L212.419 255.151H219.802L213.905 259.323L216.172 266.476L209.662 262.35L203.179 266.476L205.472 259.323Z" fill="#003CA6"/>
<path d="M72.58 259.323L66.658 255.151H74.067L76.771 247.224L79.529 255.151H86.912L81.013 259.323L83.283 266.476L76.771 262.355L70.29 266.476L72.58 259.323Z" fill="#003CA6"/>
<path d="M134.732 64.271C134.732 64.271 146.495 68.172 148.356 68.362C148.356 68.362 153.304 68.82 154.519 67.335C154.519 67.335 156.947 65.573 157.223 65.107C157.223 65.107 157.971 64.175 158.155 65.297C158.155 65.297 158.531 68.447 157.319 69.93C157.319 69.93 155.079 73.833 155.268 74.857C155.268 74.857 156.289 75.783 157.224 75.878C157.224 75.878 160.118 77.267 162.734 79.685C162.734 79.685 160.585 80.986 159.187 81.169C159.187 81.169 155.546 82.289 154.057 83.678C154.057 83.678 152.843 84.981 154.615 85.904C154.615 85.904 157.132 88.225 163.01 87.855C163.01 87.855 163.29 89.063 161.987 90.367C161.987 90.367 158.157 95.011 156.573 96.21C156.573 96.21 155.358 97.326 156.761 98.35C156.761 98.35 160.867 102.062 161.892 102.622C161.892 102.622 163.477 104.107 164.786 104.107C164.786 104.107 166.557 104.477 165.809 105.873C165.809 105.873 163.2 109.68 161.892 110.518C161.892 110.518 160.676 111.165 161.057 113.019C161.057 113.019 163.949 120.729 164.691 121.849C164.691 121.849 166.843 126.861 167.024 128.806C167.024 128.806 167.677 137.076 169.633 140.05C169.633 140.05 175.238 148.407 177.2 149.425C177.2 149.425 178.503 151.467 185.785 151.559L188.86 148.031C188.86 148.031 188.679 137.91 188.023 136.519C188.023 136.519 183.633 126.305 177.475 119.52C177.475 119.52 170.664 112.278 169.822 104.384C169.822 104.384 167.3 91.29 180.37 84.982C180.37 84.982 182.985 83.956 184.012 83.679C184.012 83.679 185.69 83.585 186.345 81.728C186.345 81.728 190.451 75.507 192.595 74.115C192.595 74.115 194.088 73.462 195.213 73.373L198.76 71.045C198.76 71.045 197.356 76.803 197.545 77.269C197.545 77.269 198.852 78.293 200.621 78.201L201.368 77.922C201.368 77.922 208.088 72.538 212.845 74.024C212.845 74.024 216.206 75.325 215.457 76.622C215.457 76.622 214.62 77.459 213.595 77.551C213.595 77.551 211.538 78.202 212.57 81.358C212.57 81.358 213.502 83.309 215.741 83.217C215.741 83.217 220.036 83.492 220.872 83.033L223.672 80.8C223.672 80.8 224.887 79.782 224.887 80.616C224.887 80.616 224.136 83.492 222.179 85.726C222.179 85.726 218.635 89.627 216.955 89.808C216.955 89.808 211.263 89.808 209.393 89.531C209.393 89.531 206.873 89.436 207.06 91.292C207.06 91.292 207.155 92.501 207.717 93.062C207.717 93.062 208.74 94.177 207.345 94.177C207.345 94.177 202.302 94.266 200.718 91.948C200.718 91.948 196.986 88.228 194.653 88.324C194.653 88.324 192.224 88.695 192.969 91.292C192.969 91.292 194.18 93.062 195.584 93.432C195.584 93.432 197.636 94.357 195.49 94.918C195.49 94.918 191.199 95.565 185.225 92.314C185.225 92.314 179.162 90.273 175.704 93.338C175.704 93.338 172.622 96.307 173.837 104.575C173.837 104.575 174.585 109.035 177.761 108.287C177.761 108.287 179.81 108.474 179.251 103.279C179.251 103.279 178.976 101.787 178.689 101.328C178.689 101.328 178.036 99.748 179.622 100.398C179.622 100.398 183.261 102.718 184.104 109.217C184.104 109.217 184.2 113.583 185.975 113.677C185.975 113.677 187.651 113.488 187.74 111.262V108.103C187.74 108.103 187.651 106.241 188.679 107.174C188.679 107.174 192.412 111.632 192.318 117.295C192.318 117.295 191.665 120.359 193.526 120.552C193.526 120.552 195.865 121.012 196.607 116.829C196.607 116.829 196.985 114.051 196.985 113.395C196.985 113.395 197.073 110.986 198.013 112.464C198.013 112.464 201.274 118.504 199.879 125.934C199.879 125.934 198.76 130.208 200.061 130.299C200.061 130.299 201.465 130.853 202.023 130.853C202.023 130.853 204.728 128.718 205.754 127.608C205.754 127.608 207.25 126.307 206.688 128.159C206.688 128.159 203.326 139.029 202.118 140.697C202.118 140.697 200.997 143.391 202.769 143.858C202.769 143.858 205.658 144.508 207.249 143.582L208.645 142.647C208.645 142.647 209.771 141.623 209.489 142.834C209.489 142.834 207.527 149.334 200.718 152.213C200.718 152.213 191.853 157.136 190.641 160.388C190.641 160.388 189.332 163.175 193.432 164.009H194.741C194.741 164.009 196.332 163.822 194.928 164.933C194.928 164.933 193.346 166.8 183.824 166.425C183.824 166.425 178.976 166.144 180.836 169.395C180.836 169.395 182.237 172.179 186.251 172.926C186.251 172.926 181.119 175.704 178.881 176.086C178.881 176.086 174.119 177.38 177.57 178.588C177.57 178.588 184.847 180.165 186.999 180.631L192.69 181.839C192.69 181.839 194.653 182.304 192.509 182.858C192.509 182.858 189.89 182.954 189.513 185.359C189.513 185.359 188.771 186.851 190.727 187.501C190.727 187.501 194.369 188.618 195.678 189.917C195.678 189.917 198.569 192.421 200.526 192.98C200.526 192.98 204.073 193.262 203.326 194.371C203.326 194.371 202.679 195.494 201.178 195.582C201.178 195.582 199.035 196.513 200.339 197.996C200.339 197.996 201.087 198.556 202.583 198.556C202.583 198.556 206.227 199.016 206.968 199.482C206.968 199.482 208.645 199.85 207.25 200.973C207.25 200.973 203.985 204.034 202.77 204.868C201.557 205.703 202.86 204.592 202.86 204.592C202.86 204.592 200.437 206.075 201.178 207.931C201.178 207.931 202.022 209.237 202.955 209.694C202.955 209.694 204.451 210.727 202.679 211.089C202.679 211.089 196.703 213.413 185.132 212.023C185.132 212.023 181.68 212.023 183.081 214.53C183.081 214.53 184.571 216.292 185.318 216.942C185.318 216.942 187.556 220.1 185.407 222.05C185.407 222.05 185.318 223.07 185.974 223.905C185.974 223.905 186.997 229.111 185.88 230.314C185.88 230.314 184.754 232.17 184.199 231.897C184.199 231.897 183.632 232.08 181.679 228.27C181.679 228.27 180.651 227.337 179.25 227.528C179.25 227.528 178.688 227.528 177.104 226.045C177.104 226.045 174.865 223.727 174.213 225.302C174.213 225.302 173.747 229.012 170.475 228.547C170.475 228.547 169.822 234.214 169.357 234.674C169.357 234.674 168.702 236.533 167.399 234.588C167.399 234.588 164.785 232.08 165.25 229.389C165.25 229.389 162.917 228.547 162.545 227.805C162.545 227.805 159.093 229.012 157.88 227.902C157.88 227.902 156.571 227.996 155.638 229.012C155.638 229.012 153.961 230.496 153.401 231.429C153.401 231.429 151.904 233.191 151.344 231.246C151.344 231.246 150.696 227.805 153.214 225.302C153.214 225.302 155.357 223.906 154.143 223.07C154.143 223.07 152.748 221.487 154.52 220.193C154.52 220.193 158.343 217.131 158.809 216.014C158.809 216.014 159.842 213.505 156.475 214.341C156.475 214.341 153.676 215.647 152.747 216.387C152.747 216.387 150.879 217.591 151.722 215.731C151.722 215.731 153.865 210.812 155.17 210.072C155.17 210.072 156.388 209.422 156.852 210.352C156.852 210.352 158.066 211.647 158.155 210.162C158.155 210.162 158.342 208.771 157.783 208.31C157.783 208.31 156.387 206.82 158.066 206.543C158.066 206.543 161.427 206.169 162.45 206.261C162.45 206.261 163.759 206.354 164.223 205.804C164.223 205.804 165.715 205.515 166.369 206.169C166.369 206.169 168.612 208.31 171.688 208.12C171.688 208.12 172.807 200.14 173.092 198.93C173.092 198.93 173.932 197.623 171.783 197.35C171.783 197.35 169.915 196.415 167.488 199.112C167.488 199.112 166.185 201.623 165.715 199.017C165.715 199.017 164.507 194.932 163.947 194.005C163.947 194.005 163.198 192.337 161.236 194.095C161.236 194.095 157.319 195.208 156.104 195.397C156.104 195.397 153.96 196.139 153.494 196.692C153.494 196.692 152.842 196.973 153.4 194.287C153.4 194.287 154.331 186.569 154.331 185.458C154.331 185.458 154.614 182.394 152.185 184.619C152.185 184.619 150.413 186.569 149.942 186.201C149.942 186.201 149.569 185.184 149.852 183.325C149.852 183.325 150.784 179.055 149.104 179.15C149.104 179.15 147.709 179.977 147.331 180.818C147.331 180.818 146.77 181.749 146.304 179.423C146.304 179.423 144.627 174.499 144.533 173.48C144.533 173.48 143.224 172.364 142.949 178.779C142.949 178.779 143.224 180.717 140.615 180.351C140.615 180.351 138.466 179.522 137.815 178.493C137.815 178.493 136.225 177.572 136.414 180.167C136.414 180.167 136.696 184.535 136.508 185.362C136.508 185.362 138.557 188.247 140.243 189.177C140.243 189.177 143.508 190.387 141.923 192.423C141.923 192.423 140.149 193.354 138.652 194.932C138.652 194.932 136.88 196.6 139.494 199.39C139.494 199.39 142.387 203.008 143.69 204.219C143.69 204.219 145.464 206.075 143.879 207.286C143.879 207.286 141.922 207.558 140.518 207.286C140.518 207.286 139.212 207.464 139.212 209.51C139.212 209.51 139.493 213.132 139.865 214.156C139.865 214.156 141.355 217.408 137.719 215.266C137.719 215.266 133.424 213.038 131.746 213.412C131.746 213.412 131.09 219.258 131.279 220.469C131.279 220.469 131.651 221.951 132.022 222.239C132.022 222.239 132.96 223.817 130.064 223.16C130.064 223.16 123.254 219.724 122.317 218.799C122.317 218.799 120.174 218.149 118.864 218.703C118.864 218.703 116.718 219.358 115.132 219.548C115.132 219.548 112.799 219.825 112.613 223.35C112.613 223.35 112.8 227.622 111.303 228.647C111.303 228.647 110.373 230.031 108.133 230.223C108.133 230.223 107.669 230.686 107.669 232.08C107.669 232.08 108.322 236.164 106.921 236.164C106.921 236.164 105.989 236.909 103.465 232.08C103.465 232.08 102.347 229.567 103.003 228.27C103.003 228.27 99.7319 227.438 99.0849 225.301C99.0849 225.301 94.6939 226.595 93.4809 228.27C93.4809 228.27 92.2659 230.222 92.3599 228.177C92.3599 228.177 92.6419 221.399 95.1599 221.774C95.1599 221.774 96.7449 222.239 97.1219 222.694C97.1219 222.694 98.3369 223.349 97.7749 221.774C97.7749 221.774 96.6549 220.288 95.9069 219.916C95.9069 219.916 93.9449 218.148 95.5369 216.476C95.5369 216.476 96.8369 214.713 95.0639 214.807C95.0639 214.807 90.6799 216.568 90.7749 215.457C90.7749 215.457 92.0849 210.904 94.3219 209.605C94.3219 209.605 95.7179 207.653 97.5879 208.309C97.5879 208.309 100.945 203.752 109.535 205.152C109.535 205.152 115.316 206.26 122.132 202.453C122.132 202.453 122.788 194.932 122.132 194.005C122.132 194.005 120.077 192.515 118.493 193.171C118.493 193.171 114.479 195.398 112.517 194.372C112.517 194.372 111.587 194.096 113.078 192.887C113.078 192.887 115.969 189.364 115.883 186.2C115.883 186.2 115.969 184.351 116.345 183.974C116.345 183.974 116.812 182.767 114.479 183.134C114.479 183.134 111.21 183.233 110.744 182.955C110.744 182.955 108.968 182.955 111.21 180.632C111.21 180.632 113.92 175.331 114.013 172.83C114.013 172.83 114.385 171.252 112.422 170.695C112.422 170.695 107.013 168.006 105.887 166.424C105.887 166.424 104.773 165.125 106.449 164.748C106.449 164.748 110.931 163.732 112.051 163.821C112.051 163.821 116.53 159.547 122.227 158.805C122.227 158.805 126.983 156.762 128.006 154.904C128.006 154.904 132.959 149.708 135.849 149.708C135.849 149.708 139.582 149.148 141.265 150.909C141.265 150.909 143.221 152.492 144.064 152.399C144.064 152.399 145.65 151.742 143.877 150.909C143.877 150.909 142.85 150.259 142.662 149.792C142.662 149.792 140.611 148.684 138.837 148.775C138.837 148.775 137.247 148.775 134.826 147.291C134.826 147.291 127.449 142.366 125.026 139.027C125.026 139.027 123.53 136.61 122.227 136.799C122.227 136.799 120.826 136.702 120.543 139.583C120.543 139.583 120.636 141.07 121.384 142.089C121.384 142.089 123.064 144.228 121.012 144.783C121.012 144.783 115.787 145.161 114.29 144.596C114.29 144.596 112.05 143.668 111.491 142.831C111.491 142.831 110.001 141.07 109.534 143.388C109.534 143.388 108.786 144.596 110.464 146.079C110.464 146.079 112.516 148.03 110.371 148.306C110.371 148.306 104.958 148.588 103.649 148.128C103.649 148.128 100.759 145.901 100.201 148.029C100.201 148.029 99.7299 150.541 100.849 151.465C100.849 151.465 103.001 153.224 101.501 153.509C101.501 153.509 92.4529 153.416 90.8689 152.952C90.8689 152.952 88.4399 152.118 88.6239 154.626C88.6239 154.626 89.4639 159.455 88.8119 161.594C88.8119 161.594 89.0009 163.819 86.2019 163.172L86.8549 169.297C86.8549 169.297 87.4169 170.782 85.9179 170.041C85.9179 170.041 83.2129 168.09 82.6549 167.814C82.6549 167.814 80.7869 166.881 81.1589 165.491C81.1589 165.491 77.7059 164.468 77.6169 163.257C77.6169 163.257 77.6169 161.036 76.3069 161.036C76.3069 161.036 75.2769 161.036 74.7219 161.964C74.7219 161.964 74.3459 163.173 72.1059 162.52C72.1059 162.52 69.2109 167.443 68.8399 167.716C68.8399 167.716 67.2499 169.483 66.6909 167.443C66.6909 167.443 65.4829 163.173 67.0689 162.336C67.0689 162.336 69.4019 161.404 70.1439 161.686C70.1439 161.686 71.6389 162.52 71.8249 160.946C71.8249 160.946 70.9879 159.823 69.6789 159.457C69.6789 159.457 66.5969 158.904 67.0689 156.762C67.0689 156.762 68.1869 154.071 67.8109 153.227C67.8109 153.227 63.7059 153.984 63.2389 152.866C63.2389 152.866 63.9869 146.923 67.7159 146.824C67.7159 146.824 67.5329 141.721 70.8909 141.535C70.8909 141.535 76.5829 141.161 80.3199 141.721C80.3199 141.721 82.8349 141.721 84.3339 139.771C84.3339 139.771 86.2969 137.167 88.9059 136.059C88.9059 136.059 98.4269 131.69 105.987 120.639C105.987 120.639 107.012 119.062 105.515 118.969C105.515 118.969 100.01 118.873 98.1439 119.062C98.1439 119.062 94.5959 120.454 95.7159 118.227C95.7159 118.227 98.2389 115.068 96.6539 114.507C96.6539 114.507 94.6919 114.421 93.2909 114.696C93.2909 114.696 88.6249 115.344 88.2499 114.135C88.2499 114.135 87.3209 112.745 90.0259 110.7C90.0259 110.7 92.8249 108.658 89.6549 107.916C89.6549 107.916 86.3839 106.894 85.2649 106.707C85.2649 106.707 82.7499 106.612 84.4259 104.667C84.4259 104.667 87.2249 102.253 86.5719 100.95C86.5719 100.95 81.3459 100.397 80.8799 99.836C80.8799 99.836 79.7609 98.351 77.2409 100.119C77.2409 100.119 73.6939 103.087 73.5089 102.158C73.5089 102.158 72.6689 101.975 74.7229 97.143C74.7229 97.143 75.5599 94.916 77.1459 96.773C77.1459 96.773 78.5469 97.795 78.5469 96.306C78.5469 96.306 77.9879 94.727 77.3349 94.175C77.3349 94.175 75.6549 92.594 76.4929 91.669C76.4929 91.669 77.6179 89.997 78.7359 89.435C78.7359 89.435 80.3209 88.418 78.2639 87.297C78.2639 87.297 77.0509 86.094 74.9069 86.742C74.9069 86.742 72.3899 86.836 71.6399 87.297C71.6399 87.297 69.7739 88.787 70.4269 86.742C70.4269 86.742 71.3599 84.421 72.5729 82.936C72.5729 82.936 74.1579 80.893 75.2779 81.917C75.2779 81.917 76.0269 83.489 77.1459 82.564C77.1459 82.564 77.7579 80.353 78.7359 79.871C79.1069 79.684 81.5349 78.851 82.8359 78.757C82.8359 78.757 84.3349 78.941 84.3349 77.548C84.3349 77.548 84.4269 74.022 83.0259 73.184C83.0259 73.184 81.6299 71.605 83.0259 71.329C83.0259 71.329 85.6419 70.679 86.4789 71.234C86.4789 71.234 89.1839 73.089 89.6559 73.927C89.6559 73.927 90.5869 74.484 89.6559 75.323C89.6559 75.323 88.8129 76.435 90.3079 76.896C90.3079 76.896 93.6689 77.644 94.6919 80.336C94.6919 80.336 96.6539 85.904 96.8369 87.296C96.8369 87.296 96.5599 89.805 97.6789 90.737C97.6789 90.737 105.887 97.325 106.92 98.626C106.92 98.626 108.131 99.559 108.503 100.207C108.503 100.207 109.13 101.921 110.372 101.51C110.372 101.51 113.359 101.786 114.196 100.86C114.196 100.86 117.654 97.795 118.121 97.419C118.121 97.419 120.264 96.306 118.863 95.839C118.863 95.839 117.183 95.097 112.982 96.4C112.982 96.4 111.587 97.326 110.931 95.382L109.16 91.384C109.16 91.384 108.04 89.995 110.088 89.714C110.088 89.714 115.598 88.046 116.813 87.95C116.813 87.95 117.745 87.856 117.932 86.927C117.932 86.927 118.397 85.441 117.002 85.346H108.599C108.599 85.346 107.109 85.257 107.198 82.843C107.198 82.843 107.479 79.589 106.732 78.852C106.732 78.852 105.337 77.549 106.637 76.343C106.637 76.343 107.946 75.412 109.161 75.602C109.161 75.602 110.837 75.693 111.682 75.323L119.423 72.166C119.423 72.166 120.732 71.33 121.575 69.654C121.575 69.654 122.228 68.446 123.159 68.265C123.159 68.265 131.65 65.383 132.769 64.64C132.771 64.642 134.174 63.994 134.732 64.271Z" fill="#003CA6"/>
<path d="M24.0119 78.7379L18.0869 74.5679H25.4969L28.2009 66.6379L30.9579 74.5679H38.3389L32.4409 78.7379L34.7119 85.8909L28.2009 81.7739L21.7189 85.8909L24.0119 78.7379Z" fill="#003CA6"/>
<path d="M254.197 78.7379L248.277 74.5679H255.683L258.393 66.6379L261.146 74.5679H268.529L262.63 78.7379L264.897 85.8909L258.393 81.7739L251.904 85.8909L254.197 78.7379Z" fill="#003CA6"/>
<path d="M24.0119 210.816L18.0869 206.643H25.4969L28.2009 198.714L30.9579 206.643H38.3389L32.4409 210.816L34.7119 217.969L28.2009 213.848L21.7189 217.969L24.0119 210.816Z" fill="#003CA6"/>
<path d="M254.197 210.816L248.277 206.643H255.683L258.393 198.714L261.146 206.643H268.529L262.63 210.816L264.897 217.969L258.393 213.848L251.904 217.969L254.197 210.816Z" fill="#003CA6"/>
<path d="M139.092 12.4709L133.171 8.29892H140.576L143.28 0.36792L146.041 8.29892H153.423L147.524 12.4709L149.792 19.6279L143.28 15.5059L136.801 19.6279L139.092 12.4709Z" fill="#003CA6"/>
<path d="M139.092 277.087L133.171 272.914H140.576L143.28 264.986L146.041 272.914H153.423L147.524 277.087L149.792 284.238L143.28 280.118L136.801 284.238L139.092 277.087Z" fill="#003CA6"/>
<path d="M6.09295 144.754L0.168945 140.581H7.57795L10.2829 132.656L13.0379 140.581H20.4209L14.5239 144.754L16.7929 151.92L10.2829 147.79L3.79995 151.92L6.09295 144.754Z" fill="#003CA6"/>
<path d="M271.907 144.754L265.982 140.581H273.391L276.096 132.653L278.853 140.581H286.234L280.336 144.754L282.606 151.92L276.096 147.79L269.613 151.92L271.907 144.754Z" fill="#003CA6"/>
</svg>
